# xmcd
#
# Track frame offsets:
#	150
#	32870
#	74473
#	97285
#	153863
#	203590
#	255273
#	289400
#
# Disc length: 4248 seconds
#
# Revision: 1
# Processed by: cddbd v1.5.1PL0 Copyright (c) Steve Scherf et al.
# Submitted via: CDex 1.50Beta5
#
DISCID=70109608
DTITLE=カラヤンほか - CLASSIC MUSIC
DYEAR=1900
DGENRE=Classical
TTITLE0=運命:ベートーベン
TTITLE1=ジュピター:モーツアルト
TTITLE2=真夏の夜の夢:メンデルスゾーン
TTITLE3=わが祖国:スメタナ
TTITLE4=ヴァイオリン協奏曲ホ短調:メンデルスゾーン
TTITLE5=四季:ヴィヴァルディ
TTITLE6=五重奏:シューベルト
TTITLE7=弦楽四重奏:チャイコフスキー
EXTD=
EXTT0=
EXTT1=
EXTT2=
EXTT3=
EXTT4=
EXTT5=
EXTT6=
EXTT7=
PLAYORDER=
